<svg xmlns="http://www.w3.org/2000/svg" fill="none" viewBox="0 0 500 500" id="Chartjs--Streamline-Svg-Logos" height="500" width="500">
  <desc>
    Chartjs Streamline Icon: https://streamlinehq.com
  </desc>
  <path fill="#36a2eb" d="M449.72552083333335 251.7015625c-68.44375 1.34375 -54.1875 44.671875 -102.42395833333333 55.62916666666666 -49.001041666666666 11.131770833333334 -56.73645833333333 -119.67552083333332 -105.72552083333332 -119.67552083333332 -48.994791666666664 0 -59.848437499999996 127.06510416666666 -121.19635416666667 214.296875l-1.75 2.4692708333333333 131.52916666666664 75.925 199.56666666666666 -115.20833333333333V251.7015625Z" stroke-width="5.2083"></path>
  <path fill="#ffce56" d="M449.72291666666666 247.75729166666667c-22.9125 -29.405208333333334 -38.45364583333333 -63.21093749999999 -71.88958333333332 -63.21093749999999 -59.168749999999996 0 -43.599999999999994 96.52395833333333 -108.99322916666667 96.52395833333333 -65.39895833333333 0 -72.27447916666667 -103.82499999999999 -146.36093749999998 -6.2265625 -23.60729166666667 31.09739583333333 -42.60885416666666 65.77239583333332 -57.53541666666666 98.58385416666667L250.15625 480.3494791666666l199.56666666666666 -115.20833333333333V247.75729166666667Z" stroke-width="5.2083"></path>
  <path fill="#fe6184" d="M50.582864583333325 287.7411458333333C73.03645833333333 225.56093749999997 82.72708333333333 175.2015625 125.59322916666666 175.2015625c65.39322916666667 0 80.95885416666667 183.71302083333333 137.01927083333334 165.02291666666665 56.051041666666656 -18.680729166666666 49.82083333333333 -118.32291666666666 137.01874999999998 -118.32291666666666 16.596874999999997 0 33.54270833333333 10.168229166666666 50.09375 26.615104166666665v116.621875L250.15833333333333 480.34635416666663 50.582864583333325 365.13854166666664V287.7411458333333Z" opacity=".8" stroke-width="5.2083"></path>
  <path fill="#e7e9ed" d="M250.00052083333333 494.79166666666663 37.974062499999995 372.3989583333333V127.60416666666666L250.00052083333333 5.208333333333333l212.02604166666666 122.39583333333333v244.79166666666666L250.00052083333333 494.79166666666663ZM62.88489583333333 358.0171875l187.115625 108.01770833333333 187.115625 -108.01770833333333V141.98541666666665L250.00052083333333 33.96828125 62.88489583333333 141.98541666666665v216.0317708333333Z" stroke-width="5.2083"></path>
</svg>